<svg xmlns="http://www.w3.org/2000/svg" width="1919" height="1080" viewBox="0 0 1919 1080">
    <g id="bottom" transform="translate(0 -1)">
        <rect  width="9" height="147" transform="translate(0 933)" fill="#7ce7f9"/>
        <rect  width="9" height="379" transform="translate(480 701)" fill="#ff0062"/>
        <rect  width="9" height="814" transform="translate(960 266)" fill="#fda602"/>
        <rect  width="9" height="907" transform="translate(1440 173)" fill="#ffde0b"/>
        <rect  width="9" height="276" transform="translate(240 804)" fill="#7ce7f9"/>
        <rect  width="9" height="646" transform="translate(720 434)" fill="#052675"/>
        <rect  width="9" height="883" transform="translate(1200 197)" fill="#ffde0b"/>
        <rect  width="9" height="797" transform="translate(1680 283)" fill="#052675"/>
        <rect  width="9" height="180" transform="translate(120 900)" fill="#ffde0b"/>
        <rect  width="9" height="462" transform="translate(600 618)" fill="#fda602"/>
        <rect  width="9" height="883" transform="translate(1080 197)" fill="#ff0062"/>
        <rect  width="9" height="865" transform="translate(1560 215)" fill="#fda602"/>
        <rect  width="9" height="316" transform="translate(360 764)" fill="#7ce7f9"/>
        <rect  width="9" height="865" transform="translate(840 215)" fill="#052675"/>
        <rect  width="9" height="913" transform="translate(1320 167)" fill="#7ce7f9"/>
        <rect  width="9" height="777" transform="translate(1800 303)" fill="#ffde0b"/>
        <rect  width="9" height="156" transform="translate(60 924)" fill="#7ce7f9"/>
        <rect  width="9" height="415" transform="translate(540 665)" fill="#ff0062"/>
        <rect  width="9" height="848" transform="translate(1020 232)" fill="#ff0062"/>
        <rect  width="9" height="896" transform="translate(1500 184)" fill="#7ce7f9"/>
        <rect  width="9" height="297" transform="translate(300 783)" fill="#fda602"/>
        <rect  width="9" height="854" transform="translate(780 226)" fill="#ffde0b"/>
        <rect  width="9" height="884" transform="translate(1260 196)" fill="#fda602"/>
        <rect  width="9" height="807" transform="translate(1740 273)" fill="#fda602"/>
        <rect  width="9" height="238" transform="translate(180 842)" fill="#ff0062"/>
        <rect  width="9" height="525" transform="translate(660 555)" fill="#ffde0b"/>
        <rect  width="9" height="905" transform="translate(1140 175)" fill="#ff0062"/>
        <rect  width="9" height="833" transform="translate(1620 247)" fill="#7ce7f9"/>
        <rect  width="9" height="347" transform="translate(420 733)" fill="#052675"/>
        <rect  width="9" height="840" transform="translate(900 240)" fill="#052675"/>
        <rect  width="9" height="905" transform="translate(1380 175)" fill="#ffde0b"/>
        <rect  width="9" height="731" transform="translate(1860 349)" fill="#ff0062"/>
        <rect  width="9" height="150" transform="translate(20 930)" fill="#7ce7f9"/>
        <rect  width="9" height="390" transform="translate(500 690)" fill="#7ce7f9"/>
        <rect  width="9" height="828" transform="translate(980 252)" fill="#fda602"/>
        <rect  width="9" height="908" transform="translate(1460 172)" fill="#7ce7f9"/>
        <rect  width="9" height="284" transform="translate(260 796)" fill="#fda602"/>
        <rect  width="9" height="72" transform="translate(710 290)" fill="#fda602"/>
        <rect  width="9" height="877" transform="translate(1220 203)" fill="#fda602"/>
        <rect  width="9" height="793" transform="translate(1700 287)" fill="#ffde0b"/>
        <rect  width="9" height="194" transform="translate(140 886)" fill="#fda602"/>
        <rect  width="9" height="479" transform="translate(620 601)" fill="#ffde0b"/>
        <rect  width="9" height="892" transform="translate(1100 188)" fill="#052675"/>
        <rect  width="9" height="857" transform="translate(1580 223)" fill="#7ce7f9"/>
        <rect  width="9" height="325" transform="translate(380 755)" fill="#052675"/>
        <rect  width="9" height="860" transform="translate(860 220)" fill="#fda602"/>
        <rect  width="9" height="908" transform="translate(1340 172)" fill="#fda602"/>
        <rect  width="9" height="762" transform="translate(1820 318)" fill="#fda602"/>
        <rect  width="9" height="160" transform="translate(80 920)" fill="#fda602"/>
        <rect  width="9" height="428" transform="translate(560 652)" fill="#ffde0b"/>
        <rect  width="9" height="865" transform="translate(1040 215)" fill="#ff0062"/>
        <rect  width="9" height="885" transform="translate(1520 195)" fill="#052675"/>
        <rect  width="9" height="303" transform="translate(320 777)" fill="#fda602"/>
        <rect  width="9" height="866" transform="translate(800 214)" fill="#fda602"/>
        <rect  width="9" height="899" transform="translate(1280 181)" fill="#fda602"/>
        <rect  width="9" height="801" transform="translate(1760 279)" fill="#052675"/>
        <rect  width="9" height="253" transform="translate(200 827)" fill="#ff0062"/>
        <rect  width="9" height="583" transform="translate(680 497)" fill="#7ce7f9"/>
        <rect  width="9" height="898" transform="translate(1160 182)" fill="#fda602"/>
        <rect  width="9" height="820" transform="translate(1640 260)" fill="#7ce7f9"/>
        <rect  width="9" height="357" transform="translate(440 723)" fill="#fda602"/>
        <rect  width="9" height="842" transform="translate(920 238)" fill="#fda602"/>
        <rect  width="9" height="910" transform="translate(1400 170)" fill="#ffde0b"/>
        <rect  width="9" height="721" transform="translate(1880 359)" fill="#fda602"/>
        <rect  width="9" height="152" transform="translate(40 928)" fill="#fda602"/>
        <rect  width="9" height="403" transform="translate(520 677)" fill="#7ce7f9"/>
        <rect  width="9" height="840" transform="translate(1000 240)" fill="#fda602"/>
        <rect  width="9" height="903" transform="translate(1480 177)" fill="#7ce7f9"/>
        <rect  width="9" height="291" transform="translate(280 789)" fill="#7ce7f9"/>
        <rect  width="9" height="841" transform="translate(760 239)" fill="#ffde0b"/>
        <rect  width="9" height="877" transform="translate(1240 203)" fill="#ff0062"/>
        <rect  width="9" height="795" transform="translate(1720 285)" fill="#ffde0b"/>
        <rect  width="9" height="218" transform="translate(160 862)" fill="#fda602"/>
        <rect  width="9" height="496" transform="translate(640 584)" fill="#ff0062"/>
        <rect  width="9" height="902" transform="translate(1120 178)" fill="#7ce7f9"/>
        <rect  width="9" height="846" transform="translate(1600 234)" fill="#052675"/>
        <rect  width="9" height="336" transform="translate(400 744)" fill="#fda602"/>
        <rect  width="9" height="860" transform="translate(880 220)" fill="#fda602"/>
        <rect  width="9" height="904" transform="translate(1360 176)" fill="#7ce7f9"/>
        <rect  width="9" height="744" transform="translate(1840 336)" fill="#fda602"/>
        <rect  width="9" height="169" transform="translate(100 911)" fill="#fda602"/>
        <rect  width="9" height="445" transform="translate(580 635)" fill="#fda602"/>
        <rect  width="9" height="878" transform="translate(1060 202)" fill="#7ce7f9"/>
        <rect  width="9" height="873" transform="translate(1540 207)" fill="#fda602"/>
        <rect  width="9" height="309" transform="translate(340 771)" fill="#7ce7f9"/>
        <rect  width="9" height="866" transform="translate(820 214)" fill="#fda602"/>
        <rect  width="9" height="908" transform="translate(1300 172)" fill="#ff0062"/>
        <rect  width="9" height="790" transform="translate(1780 290)" fill="#fda602"/>
        <rect  width="9" height="266" transform="translate(220 814)" fill="#7ce7f9"/>
        <rect  width="9" height="629" transform="translate(700 451)" fill="#ffde0b"/>
        <rect  width="9" height="892" transform="translate(1180 188)" fill="#fda602"/>
        <rect  width="9" height="807" transform="translate(1660 273)" fill="#fda602"/>
        <rect  width="9" height="368" transform="translate(460 712)" fill="#ff0062"/>
        <rect  width="9" height="817" transform="translate(940 263)" fill="#ffde0b"/>
        <rect  width="9" height="903" transform="translate(1420 177)" fill="#ffde0b"/>
        <rect  width="9" height="715" transform="translate(1900 365)" fill="#fda602"/>
        <rect  width="9" height="149" transform="translate(10 931)" fill="#ffde0b"/>
        <rect  width="9" height="385" transform="translate(490 695)" fill="#052675"/>
        <rect  width="9" height="819" transform="translate(970 261)" fill="#fda602"/>
        <rect  width="9" height="909" transform="translate(1450 171)" fill="#7ce7f9"/>
        <rect  width="9" height="280" transform="translate(250 800)" fill="#ff0062"/>
        <rect  width="9" height="42" transform="translate(700 297)" fill="#ffde0b"/>
        <rect  width="9" height="880" transform="translate(1210 200)" fill="#ffde0b"/>
        <rect  width="9" height="794" transform="translate(1690 286)" fill="#7ce7f9"/>
        <rect  width="9" height="186" transform="translate(130 894)" fill="#ffde0b"/>
        <rect  width="9" height="470" transform="translate(610 610)" fill="#7ce7f9"/>
        <rect  width="9" height="887" transform="translate(1090 193)" fill="#7ce7f9"/>
        <rect  width="9" height="861" transform="translate(1570 219)" fill="#7ce7f9"/>
        <rect  width="9" height="320" transform="translate(370 760)" fill="#fda602"/>
        <rect  width="9" height="862" transform="translate(850 218)" fill="#ffde0b"/>
        <rect  width="9" height="911" transform="translate(1330 169)" fill="#7ce7f9"/>
        <rect  width="9" height="770" transform="translate(1810 310)" fill="#fda602"/>
        <rect  width="9" height="157" transform="translate(70 923)" fill="#fda602"/>
        <rect  width="9" height="421" transform="translate(550 659)" fill="#fda602"/>
        <rect  width="9" height="855" transform="translate(1030 225)" fill="#fda602"/>
        <rect  width="9" height="892" transform="translate(1510 188)" fill="#fda602"/>
        <rect  width="9" height="300" transform="translate(310 780)" fill="#fda602"/>
        <rect  width="9" height="860" transform="translate(790 220)" fill="#052675"/>
        <rect  width="9" height="892" transform="translate(1270 188)" fill="#fda602"/>
        <rect  width="9" height="805" transform="translate(1750 275)" fill="#fda602"/>
        <rect  width="9" height="246" transform="translate(190 834)" fill="#052675"/>
        <rect  width="9" height="554" transform="translate(670 526)" fill="#7ce7f9"/>
        <rect  width="9" height="902" transform="translate(1150 178)" fill="#fda602"/>
        <rect  width="9" height="827" transform="translate(1630 253)" fill="#fda602"/>
        <rect  width="9" height="352" transform="translate(430 728)" fill="#052675"/>
        <rect  width="9" height="844" transform="translate(910 236)" fill="#fda602"/>
        <rect  width="9" height="908" transform="translate(1390 172)" fill="#052675"/>
        <rect  width="9" height="726" transform="translate(1870 354)" fill="#052675"/>
        <rect  width="9" height="151" transform="translate(30 929)" fill="#fda602"/>
        <rect  width="9" height="396" transform="translate(510 684)" fill="#ffde0b"/>
        <rect  width="9" height="836" transform="translate(990 244)" fill="#fda602"/>
        <rect  width="9" height="905" transform="translate(1470 175)" fill="#ff0062"/>
        <rect  width="9" height="287" transform="translate(270 793)" fill="#ffde0b"/>
        <rect  width="9" height="92" transform="translate(720 278)" fill="#ff0062"/>
        <rect  width="9" height="876" transform="translate(1230 204)" fill="#fda602"/>
        <rect  width="9" height="798" transform="translate(1710 282)" fill="#fda602"/>
        <rect  width="9" height="205" transform="translate(150 875)" fill="#ff0062"/>
        <rect  width="9" height="487" transform="translate(630 593)" fill="#052675"/>
        <rect  width="9" height="898" transform="translate(1110 182)" fill="#ffde0b"/>
        <rect  width="9" height="850" transform="translate(1590 230)" fill="#fda602"/>
        <rect  width="9" height="331" transform="translate(390 749)" fill="#052675"/>
        <rect  width="9" height="858" transform="translate(870 222)" fill="#ff0062"/>
        <rect  width="9" height="905" transform="translate(1350 175)" fill="#ffde0b"/>
        <rect  width="9" height="751" transform="translate(1830 329)" fill="#fda602"/>
        <rect  width="9" height="165" transform="translate(90 915)" fill="#7ce7f9"/>
        <rect  width="9" height="437" transform="translate(570 643)" fill="#052675"/>
        <rect  width="9" height="874" transform="translate(1050 206)" fill="#ff0062"/>
        <rect  width="9" height="878" transform="translate(1530 202)" fill="#fda602"/>
        <rect  width="9" height="306" transform="translate(330 774)" fill="#7ce7f9"/>
        <rect  width="9" height="868" transform="translate(810 212)" fill="#7ce7f9"/>
        <rect  width="9" height="904" transform="translate(1290 176)" fill="#052675"/>
        <rect  width="9" height="795" transform="translate(1770 285)" fill="#7ce7f9"/>
        <rect  width="9" height="260" transform="translate(210 820)" fill="#ffde0b"/>
        <rect  width="9" height="608" transform="translate(690 472)" fill="#ff0062"/>
        <rect  width="9" height="896" transform="translate(1170 184)" fill="#ff0062"/>
        <rect  width="9" height="813" transform="translate(1650 267)" fill="#ffde0b"/>
        <rect  width="9" height="363" transform="translate(450 717)" fill="#ff0062"/>
        <rect  width="9" height="828" transform="translate(930 252)" fill="#ff0062"/>
        <rect  width="9" height="905" transform="translate(1410 175)" fill="#7ce7f9"/>
        <rect  width="9" height="717" transform="translate(1890 363)" fill="#052675"/>
        <rect  width="9" height="154" transform="translate(50 926)" fill="#fda602"/>
        <rect  width="9" height="408" transform="translate(530 672)" fill="#7ce7f9"/>
        <rect  width="9" height="844" transform="translate(1010 236)" fill="#052675"/>
        <rect  width="9" height="900" transform="translate(1490 180)" fill="#7ce7f9"/>
        <rect  width="9" height="293" transform="translate(290 787)" fill="#fda602"/>
        <rect  width="9" height="851" transform="translate(770 229)" fill="#7ce7f9"/>
        <rect  width="9" height="880" transform="translate(1250 200)" fill="#fda602"/>
        <rect  width="9" height="799" transform="translate(1730 281)" fill="#052675"/>
        <rect  width="9" height="229" transform="translate(170 851)" fill="#052675"/>
        <rect  width="9" height="507" transform="translate(650 573)" fill="#ffde0b"/>
        <rect  width="9" height="904" transform="translate(1130 176)" fill="#ff0062"/>
        <rect  width="9" height="839" transform="translate(1610 241)" fill="#7ce7f9"/>
        <rect  width="9" height="342" transform="translate(410 738)" fill="#fda602"/>
        <rect  width="9" height="858" transform="translate(890 222)" fill="#ff0062"/>
        <rect  width="9" height="902" transform="translate(1370 178)" fill="#fda602"/>
        <rect  width="9" height="737" transform="translate(1850 343)" fill="#052675"/>
        <rect  width="9" height="174" transform="translate(110 906)" fill="#7ce7f9"/>
        <rect  width="9" height="454" transform="translate(590 626)" fill="#ffde0b"/>
        <rect  width="9" height="880" transform="translate(1070 200)" fill="#7ce7f9"/>
        <rect  width="9" height="869" transform="translate(1550 211)" fill="#052675"/>
        <rect  width="9" height="312" transform="translate(350 768)" fill="#ff0062"/>
        <rect  width="9" height="868" transform="translate(830 212)" fill="#fda602"/>
        <rect  width="9" height="911" transform="translate(1310 169)" fill="#ff0062"/>
        <rect  width="9" height="783" transform="translate(1790 297)" fill="#fda602"/>
        <rect  width="9" height="271" transform="translate(230 809)" fill="#fda602"/>
        <rect  width="9" height="636" transform="translate(710 444)" fill="#ff0062"/>
        <rect  width="9" height="887" transform="translate(1190 193)" fill="#fda602"/>
        <rect  width="9" height="802" transform="translate(1670 278)" fill="#7ce7f9"/>
        <rect  width="9" height="374" transform="translate(470 706)" fill="#ff0062"/>
        <rect  width="9" height="812" transform="translate(950 268)" fill="#052675"/>
        <rect  width="9" height="904" transform="translate(1430 176)" fill="#ff0062"/>
        <rect  width="9" height="713" transform="translate(1910 367)" fill="#7ce7f9"/>
        <rect  width="9" height="820" transform="translate(740 260)" fill="#fda602"/>
        <rect  width="9" height="810" transform="translate(730 270)" fill="#fda602"/>
        <rect  width="9" height="833" transform="translate(750 247)" fill="#fda602"/>
    </g>
    <g id="top">
        <rect  width="9" height="776" transform="translate(320)" fill="#ffde0b"/>
        <rect  width="9" height="233" transform="translate(1600)" fill="#fda602"/>
        <rect  width="9" height="265" transform="translate(960)" fill="#ffde0b"/>
        <rect  width="9" height="700" transform="translate(480)" fill="#7ce7f9"/>
        <rect  width="9" height="278" transform="translate(1760)" fill="#052675"/>
        <rect  width="9" height="177" transform="translate(1120)" fill="#ff0062"/>
        <rect  width="9" height="773" transform="translate(330)" fill="#fda602"/>
        <rect  width="9" height="240" transform="translate(1610)" fill="#052675"/>
        <rect  width="9" height="260" transform="translate(970)" fill="#ffde0b"/>
        <rect  width="9" height="694" transform="translate(490)" fill="#ff0062"/>
        <rect  width="9" height="284" transform="translate(1770)" fill="#ff0062"/>
        <rect  width="9" height="175" transform="translate(1130)" fill="#ffde0b"/>
        <rect  width="9" height="770" transform="translate(340)" fill="#fda602"/>
        <rect  width="9" height="1080" transform="translate(1620)" fill="#ff0062"/>
        <rect  width="9" height="251" transform="translate(980)" fill="#7ce7f9"/>
        <rect  width="9" height="980" transform="translate(500)" fill="#ff0062"/>
        <rect  width="9" height="289" transform="translate(1780)" fill="#ffde0b"/>
        <rect  width="9" height="174" transform="translate(1140)" fill="#7ce7f9"/>
        <rect  width="9" height="767" transform="translate(350)" fill="#ff0062"/>
        <rect  width="9" height="252" transform="translate(1630)" fill="#ffde0b"/>
        <rect  width="9" height="243" transform="translate(990)" fill="#fda602"/>
        <rect  width="9" height="683" transform="translate(510)" fill="#052675"/>
        <rect  width="9" height="296" transform="translate(1790)" fill="#fda602"/>
        <rect  width="9" height="177" transform="translate(1150)" fill="#7ce7f9"/>
        <rect  width="9" height="763" transform="translate(360)" fill="#ff0062"/>
        <rect  width="9" height="259" transform="translate(1640)" fill="#ff0062"/>
        <rect  width="9" height="239" transform="translate(1000)" fill="#ff0062"/>
        <rect  width="9" height="676" transform="translate(520)" fill="#052675"/>
        <rect  width="9" height="302" transform="translate(1800)" fill="#fda602"/>
        <rect  width="9" height="181" transform="translate(1160)" fill="#ffde0b"/>
        <rect  width="9" height="759" transform="translate(370)" fill="#fda602"/>
        <rect  width="9" height="266" transform="translate(1650)" fill="#ffde0b"/>
        <rect  width="9" height="235" transform="translate(1010)" fill="#7ce7f9"/>
        <rect  width="9" height="671" transform="translate(530)" fill="#7ce7f9"/>
        <rect  width="9" height="309" transform="translate(1810)" fill="#052675"/>
        <rect  width="9" height="183" transform="translate(1170)" fill="#fda602"/>
        <rect  width="9" height="754" transform="translate(380)" fill="#ffde0b"/>
        <rect  width="9" height="272" transform="translate(1660)" fill="#fda602"/>
        <rect  width="9" height="231" transform="translate(1020)" fill="#ff0062"/>
        <rect  width="9" height="664" transform="translate(540)" fill="#fda602"/>
        <rect  width="9" height="317" transform="translate(1820)" fill="#052675"/>
        <rect  width="9" height="187" transform="translate(1180)" fill="#fda602"/>
        <rect  width="9" height="748" transform="translate(390)" fill="#ffde0b"/>
        <rect  width="9" height="277" transform="translate(1670)" fill="#ffde0b"/>
        <rect  width="9" height="224" transform="translate(1030)" fill="#052675"/>
        <rect  width="9" height="658" transform="translate(550)" fill="#7ce7f9"/>
        <rect  width="9" height="328" transform="translate(1830)" fill="#ff0062"/>
        <rect  width="9" height="192" transform="translate(1190)" fill="#052675"/>
        <rect  width="9" height="743" transform="translate(400)" fill="#fda602"/>
        <rect  width="9" height="282" transform="translate(1680)" fill="#ff0062"/>
        <rect  width="9" height="214" transform="translate(1040)" fill="#fda602"/>
        <rect  width="9" height="651" transform="translate(560)" fill="#052675"/>
        <rect  width="9" height="335" transform="translate(1840)" fill="#ffde0b"/>
        <rect  width="9" height="196" transform="translate(1200)" fill="#fda602"/>
        <rect  width="9" height="737" transform="translate(410)" fill="#fda602"/>
        <rect  width="9" height="285" transform="translate(1690)" fill="#052675"/>
        <rect  width="9" height="205" transform="translate(1050)" fill="#fda602"/>
        <rect  width="9" height="642" transform="translate(570)" fill="#052675"/>
        <rect  width="9" height="342" transform="translate(1850)" fill="#7ce7f9"/>
        <rect  width="9" height="199" transform="translate(1210)" fill="#7ce7f9"/>
        <rect  width="9" height="732" transform="translate(420)" fill="#fda602"/>
        <rect  width="9" height="286" transform="translate(1700)" fill="#fda602"/>
        <rect  width="9" height="201" transform="translate(1060)" fill="#ff0062"/>
        <rect  width="9" height="634" transform="translate(580)" fill="#fda602"/>
        <rect  width="9" height="348" transform="translate(1860)" fill="#7ce7f9"/>
        <rect  width="9" height="202" transform="translate(1220)" fill="#ffde0b"/>
        <rect  width="9" height="727" transform="translate(430)" fill="#ff0062"/>
        <rect  width="9" height="281" transform="translate(1710)" fill="#7ce7f9"/>
        <rect  width="9" height="199" transform="translate(1070)" fill="#7ce7f9"/>
        <rect  width="9" height="625" transform="translate(590)" fill="#052675"/>
        <rect  width="9" height="353" transform="translate(1870)" fill="#fda602"/>
        <rect  width="9" height="203" transform="translate(1230)" fill="#fda602"/>
        <rect  width="9" height="722" transform="translate(440)" fill="#ff0062"/>
        <rect  width="9" height="284" transform="translate(1720)" fill="#ffde0b"/>
        <rect  width="9" height="196" transform="translate(1080)" fill="#ff0062"/>
        <rect  width="9" height="617" transform="translate(600)" fill="#052675"/>
        <rect  width="9" height="358" transform="translate(1880)" fill="#ffde0b"/>
        <rect  width="9" height="202" transform="translate(1240)" fill="#7ce7f9"/>
        <rect  width="9" height="716" transform="translate(450)" fill="#ffde0b"/>
        <rect  width="9" height="280" transform="translate(1730)" fill="#ffde0b"/>
        <rect  width="9" height="192" transform="translate(1090)" fill="#ff0062"/>
        <rect  width="9" height="609" transform="translate(610)" fill="#fda602"/>
        <rect  width="9" height="362" transform="translate(1890)" fill="#7ce7f9"/>
        <rect  width="9" height="199" transform="translate(1250)" fill="#ff0062"/>
        <rect  width="9" height="711" transform="translate(460)" fill="#ffde0b"/>
        <rect  width="9" height="272" transform="translate(1740)" fill="#fda602"/>
        <rect  width="9" height="187" transform="translate(1100)" fill="#7ce7f9"/>
        <rect  width="9" height="600" transform="translate(620)" fill="#fda602"/>
        <rect  width="9" height="364" transform="translate(1900)" fill="#7ce7f9"/>
        <rect  width="9" height="195" transform="translate(1260)" fill="#fda602"/>
        <rect  width="9" height="705" transform="translate(470)" fill="#fda602"/>
        <rect  width="9" height="274" transform="translate(1750)" fill="#052675"/>
        <rect  width="9" height="181" transform="translate(1110)" fill="#052675"/>
        <rect  width="9" height="592" transform="translate(630)" fill="#ff0062"/>
        <rect  width="9" height="366" transform="translate(1910)" fill="#ff0062"/>
        <rect  width="9" height="1080" transform="translate(1270)" fill="#ff0062"/>
        <rect  width="9" height="1080" fill="#ff0062"/>
        <rect  width="9" height="180" transform="translate(1280)" fill="#ffde0b"/>
        <rect  width="9" height="583" transform="translate(640)" fill="#ffde0b"/>
        <rect  width="9" height="861" transform="translate(160)" fill="#ffde0b"/>
        <rect  width="9" height="172" transform="translate(1440)" fill="#fda602"/>
        <rect  width="9" height="213" transform="translate(800)" fill="#7ce7f9"/>
        <rect  width="9" height="930" transform="translate(10)" fill="#ffde0b"/>
        <rect  width="9" height="175" transform="translate(1290)" fill="#fda602"/>
        <rect  width="9" height="572" transform="translate(650)" fill="#ff0062"/>
        <rect  width="9" height="850" transform="translate(170)" fill="#fda602"/>
        <rect  width="9" height="170" transform="translate(1450)" fill="#ff0062"/>
        <rect  width="9" height="211" transform="translate(810)" fill="#fda602"/>
        <rect  width="9" height="1080" transform="translate(20)" fill="#ff0062"/>
        <rect  width="9" height="171" transform="translate(1300)" fill="#ffde0b"/>
        <rect  width="9" height="554" transform="translate(660)" fill="#fda602"/>
        <rect  width="9" height="841" transform="translate(180)" fill="#7ce7f9"/>
        <rect  width="9" height="171" transform="translate(1460)" fill="#052675"/>
        <rect  width="9" height="213" transform="translate(820)" fill="#7ce7f9"/>
        <rect  width="9" height="928" transform="translate(30)" fill="#ff0062"/>
        <rect  width="9" height="168" transform="translate(1310)" fill="#ffde0b"/>
        <rect  width="9" height="525" transform="translate(670)" fill="#7ce7f9"/>
        <rect  width="9" height="833" transform="translate(190)" fill="#7ce7f9"/>
        <rect  width="9" height="174" transform="translate(1470)" fill="#7ce7f9"/>
        <rect  width="9" height="211" transform="translate(830)" fill="#fda602"/>
        <rect  width="9" height="927" transform="translate(40)" fill="#7ce7f9"/>
        <rect  width="9" height="166" transform="translate(1320)" fill="#ff0062"/>
        <rect  width="9" height="496" transform="translate(680)" fill="#7ce7f9"/>
        <rect  width="9" height="826" transform="translate(200)" fill="#ff0062"/>
        <rect  width="9" height="176" transform="translate(1480)" fill="#052675"/>
        <rect  width="9" height="214" transform="translate(840)" fill="#ff0062"/>
        <rect  width="9" height="925" transform="translate(50)" fill="#7ce7f9"/>
        <rect  width="9" height="168" transform="translate(1330)" fill="#7ce7f9"/>
        <rect  width="9" height="471" transform="translate(690)" fill="#fda602"/>
        <rect  width="9" height="819" transform="translate(210)" fill="#052675"/>
        <rect  width="9" height="179" transform="translate(1490)" fill="#ffde0b"/>
        <rect  width="9" height="217" transform="translate(850)" fill="#7ce7f9"/>
        <rect  width="9" height="923" transform="translate(60)" fill="#fda602"/>
        <rect  width="9" height="171" transform="translate(1340)" fill="#ffde0b"/>
        <rect  width="9" height="813" transform="translate(220)" fill="#ff0062"/>
        <rect  width="9" height="183" transform="translate(1500)" fill="#7ce7f9"/>
        <rect  width="9" height="219" transform="translate(860)" fill="#ffde0b"/>
        <rect  width="9" height="922" transform="translate(70)" fill="#ffde0b"/>
        <rect  width="9" height="174" transform="translate(1350)" fill="#ff0062"/>
        <rect  width="9" height="808" transform="translate(230)" fill="#7ce7f9"/>
        <rect  width="9" height="187" transform="translate(1510)" fill="#ffde0b"/>
        <rect  width="9" height="221" transform="translate(870)" fill="#fda602"/>
        <rect  width="9" height="1080" transform="translate(80)" fill="#ff0062"/>
        <rect  width="9" height="175" transform="translate(1360)" fill="#fda602"/>
        <rect  width="9" height="803" transform="translate(240)" fill="#ffde0b"/>
        <rect  width="9" height="194" transform="translate(1520)" fill="#7ce7f9"/>
        <rect  width="9" height="219" transform="translate(880)" fill="#ff0062"/>
        <rect  width="9" height="914" transform="translate(90)" fill="#ffde0b"/>
        <rect  width="9" height="177" transform="translate(1370)" fill="#ffde0b"/>
        <rect  width="9" height="269" transform="translate(730)" fill="#ff0062"/>
        <rect  width="9" height="799" transform="translate(250)" fill="#7ce7f9"/>
        <rect  width="9" height="201" transform="translate(1530)" fill="#7ce7f9"/>
        <rect  width="9" height="221" transform="translate(890)" fill="#7ce7f9"/>
        <rect  width="9" height="910" transform="translate(100)" fill="#7ce7f9"/>
        <rect  width="9" height="174" transform="translate(1380)" fill="#ffde0b"/>
        <rect  width="9" height="259" transform="translate(740)" fill="#fda602"/>
        <rect  width="9" height="795" transform="translate(260)" fill="#ff0062"/>
        <rect  width="9" height="206" transform="translate(1540)" fill="#7ce7f9"/>
        <rect  width="9" height="239" transform="translate(900)" fill="#052675"/>
        <rect  width="9" height="905" transform="translate(110)" fill="#7ce7f9"/>
        <rect  width="9" height="171" transform="translate(1390)" fill="#fda602"/>
        <rect  width="9" height="246" transform="translate(750)" fill="#ffde0b"/>
        <rect  width="9" height="792" transform="translate(270)" fill="#fda602"/>
        <rect  width="9" height="210" transform="translate(1550)" fill="#fda602"/>
        <rect  width="9" height="235" transform="translate(910)" fill="#fda602"/>
        <rect  width="9" height="899" transform="translate(120)" fill="#ffde0b"/>
        <rect  width="9" height="169" transform="translate(1400)" fill="#ffde0b"/>
        <rect  width="9" height="238" transform="translate(760)" fill="#052675"/>
        <rect  width="9" height="788" transform="translate(280)" fill="#fda602"/>
        <rect  width="9" height="214" transform="translate(1560)" fill="#7ce7f9"/>
        <rect  width="9" height="237" transform="translate(920)" fill="#ffde0b"/>
        <rect  width="9" height="893" transform="translate(130)" fill="#7ce7f9"/>
        <rect  width="9" height="1080" transform="translate(1410)" fill="#ff0062"/>
        <rect  width="9" height="228" transform="translate(770)" fill="#7ce7f9"/>
        <rect  width="9" height="786" transform="translate(290)" fill="#fda602"/>
        <rect  width="9" height="218" transform="translate(1570)" fill="#ffde0b"/>
        <rect  width="9" height="251" transform="translate(930)" fill="#ffde0b"/>
        <rect  width="9" height="885" transform="translate(140)" fill="#ff0062"/>
        <rect  width="9" height="176" transform="translate(1420)" fill="#ff0062"/>
        <rect  width="9" height="225" transform="translate(780)" fill="#7ce7f9"/>
        <rect  width="9" height="782" transform="translate(300)" fill="#ffde0b"/>
        <rect  width="9" height="222" transform="translate(1580)" fill="#ff0062"/>
        <rect  width="9" height="262" transform="translate(940)" fill="#7ce7f9"/>
        <rect  width="9" height="874" transform="translate(150)" fill="#ff0062"/>
        <rect  width="9" height="175" transform="translate(1430)" fill="#7ce7f9"/>
        <rect  width="9" height="219" transform="translate(790)" fill="#fda602"/>
        <rect  width="9" height="779" transform="translate(310)" fill="#052675"/>
        <rect  width="9" height="229" transform="translate(1590)" fill="#fda602"/>
        <rect  width="9" height="267" transform="translate(950)" fill="#fda602"/>
        <rect  width="9" height="296" transform="translate(700)" fill="#7ce7f9"/>
        <rect  width="9" height="289" transform="translate(710)" fill="#fda602"/>
        <rect  width="9" height="277" transform="translate(720)" fill="#7ce7f9"/>
        <rect  width="9" height="112" transform="translate(700 338)" fill="#052675"/>
        <rect  width="9" height="82" transform="translate(710 361)" fill="#ffde0b"/>
        <rect  width="9" height="65" transform="translate(720 368)" fill="#fda602"/>
    </g>
</svg>
