<svg xmlns="http://www.w3.org/2000/svg" width="326.737" height="116.847" viewBox="0 0 326.737 116.847">
<g fill="#FFFFFF">
    <path d="M1064.457,621.834q-5.466-5.755-5.458-14.842l.02-32.234q0-8.946,5.475-14.764a18.5,18.5,0,0,1,14.132-5.813,20.569,20.569,0,0,1,10.152,2.491,18.346,18.346,0,0,1,6.954,6.606,16.764,16.764,0,0,1,2.479,8.8v.427a1.255,1.255,0,0,1-1.42,1.419h-1.42a1.255,1.255,0,0,1-1.42-1.421v-.426a13.139,13.139,0,0,0-4.325-9.728,15.193,15.193,0,0,0-11-4.2,14.385,14.385,0,0,0-11.079,4.609q-4.263,4.613-4.267,12l-.019,32.233q0,7.386,4.253,12a14.372,14.372,0,0,0,11.073,4.621,15.187,15.187,0,0,0,11.008-4.181,13.149,13.149,0,0,0,4.337-9.725v-.426a1.254,1.254,0,0,1,1.421-1.419h1.42a1.255,1.255,0,0,1,1.417,1.421v.427a16.765,16.765,0,0,1-2.489,8.8,18.311,18.311,0,0,1-6.962,6.6,20.57,20.57,0,0,1-10.155,2.48A18.619,18.619,0,0,1,1064.457,621.834Z" transform="translate(-1058.999 -553)"/>
    <path d="M1123.98,621.869q-5.463-5.754-5.458-14.842l.02-32.233q.006-8.946,5.476-14.765a20.054,20.054,0,0,1,28.257.018q5.461,5.828,5.458,14.77l-.019,32.234q0,9.088-5.476,14.836a20.232,20.232,0,0,1-28.258-.018Zm25.207-2.824q4.261-4.611,4.267-12l.02-32.235q0-7.38-4.253-12a15.6,15.6,0,0,0-22.152-.012q-4.261,4.612-4.267,11.995l-.02,32.234q0,7.384,4.253,12a15.6,15.6,0,0,0,22.152.014Z" transform="translate(-1058.999 -553)"/>
    <path d="M1190.363,625.246l-14.727-68.309v-.285a1.13,1.13,0,0,1,1.279-1.277h1.42a1.357,1.357,0,0,1,1.561,1.279l12.6,62.628c.094.284.189.427.284.427s.189-.142.284-.426l12.817-62.613a1.46,1.46,0,0,1,1.563-1.277h1.562a1.356,1.356,0,0,1,1.561,1.279l12.885,62.628c.093.284.189.427.283.427s.19-.142.285-.426l12.959-62.614a1.461,1.461,0,0,1,1.563-1.277h1.42a1.2,1.2,0,0,1,1.277,1.563l-15.093,68.292a1.356,1.356,0,0,1-1.563,1.277h-1.7a1.461,1.461,0,0,1-1.561-1.278l-12.885-60.925c-.095-.284-.191-.427-.284-.427s-.191.142-.284.426l-12.532,60.91a1.356,1.356,0,0,1-1.563,1.276h-1.846A1.46,1.46,0,0,1,1190.363,625.246Z" transform="translate(-1058.999 -553)"/>
    <path d="M1294.645,622.256a16.091,16.091,0,0,1-5.247-12.285v-.711a1.256,1.256,0,0,1,1.422-1.419h1.278a1.256,1.256,0,0,1,1.419,1.421v.568a12.957,12.957,0,0,0,4.041,9.729q4.044,3.909,10.86,3.912a13.786,13.786,0,0,0,10.3-3.971A14.351,14.351,0,0,0,1322.627,609a12.878,12.878,0,0,0-2.126-7.669,16.568,16.568,0,0,0-5.18-4.761,77.18,77.18,0,0,0-8.446-4.051,82.493,82.493,0,0,1-9.086-4.408,16.885,16.885,0,0,1-5.747-5.683,17.187,17.187,0,0,1-2.337-9.373q0-8.234,5.048-13.2t13.422-4.962q8.233.006,13.274,5.05a17.587,17.587,0,0,1,5.033,13v.425a1.255,1.255,0,0,1-1.42,1.419h-1.136a1.254,1.254,0,0,1-1.419-1.421v-.425a13.776,13.776,0,0,0-4.041-10.156,14.129,14.129,0,0,0-10.435-4.053,13.555,13.555,0,0,0-10.226,3.969,14.308,14.308,0,0,0-3.84,10.364,12.756,12.756,0,0,0,1.912,7.173,14.489,14.489,0,0,0,4.825,4.617,73.049,73.049,0,0,0,7.879,3.839,86.9,86.9,0,0,1,9.653,4.621,18.552,18.552,0,0,1,6.1,5.9,17.322,17.322,0,0,1,2.55,9.8q0,8.235-5.12,13.2t-13.494,4.962Q1299.894,627.158,1294.645,622.256Z" transform="translate(-1058.999 -553)"/>
    <path d="M1384.306,591.993l-32.944-.019a.5.5,0,0,0-.569.567l-.009,14.626q0,7.386,4.253,12a15.549,15.549,0,0,0,20.59,1.361,15.466,15.466,0,0,0,5.259-8.658,1.588,1.588,0,0,1,1.562-1.276h1.42a1.231,1.231,0,0,1,1.066.5,1.507,1.507,0,0,1,.212,1.207,18.307,18.307,0,0,1-6.468,11.214,19.156,19.156,0,0,1-12.57,4.252,18.614,18.614,0,0,1-14.126-5.76q-5.463-5.754-5.458-14.842l.02-32.233q.006-8.946,5.476-14.765a20.055,20.055,0,0,1,28.258.018q5.461,5.826,5.458,14.77l-.009,15.62A1.256,1.256,0,0,1,1384.306,591.993Zm-29.235-29.055q-4.263,4.613-4.267,12l-.008,12.779a.5.5,0,0,0,.568.568l29.535.019a.5.5,0,0,0,.57-.569l.008-12.78q0-7.381-4.254-12a15.6,15.6,0,0,0-22.152-.012Z" transform="translate(-1058.999 -553)"/>
    <path d="M1138.77,668.347V654.413a1.349,1.349,0,0,1,1.5-1.5h.3a1.349,1.349,0,0,1,1.5,1.5v13.934a1.349,1.349,0,0,1-1.5,1.5h-.3A1.349,1.349,0,0,1,1138.77,668.347Z" transform="translate(-1058.999 -553)"/>
    <path d="M1156.109,668.347V654.413a1.349,1.349,0,0,1,1.5-1.5h4.057c3.336,0,5.664,2.2,5.664,6.313v4.344c0,4.092-2.328,6.277-5.664,6.277h-4.057A1.35,1.35,0,0,1,1156.109,668.347Zm5.161-1.645c1.44,0,2.772-.648,2.772-3.432V659.5c0-2.761-1.284-3.409-2.772-3.409h-1.848V666.7Z" transform="translate(-1058.999 -553)"/>
    <path d="M1180.995,668.347V654.413a1.348,1.348,0,0,1,1.5-1.5h6.469a1.349,1.349,0,0,1,1.5,1.5v.192a1.349,1.349,0,0,1-1.5,1.5H1184.3v3.84h3.072a1.447,1.447,0,1,1,0,2.893H1184.3v3.828h4.669a1.349,1.349,0,0,1,1.5,1.5v.181a1.349,1.349,0,0,1-1.5,1.5h-6.469A1.349,1.349,0,0,1,1180.995,668.347Z" transform="translate(-1058.999 -553)"/>
    <path d="M1203.368,668.166l4.116-13.98a1.581,1.581,0,0,1,1.68-1.273h.96a1.572,1.572,0,0,1,1.681,1.273l4.044,13.98c.288,1.057-.2,1.681-1.248,1.681h-.325a1.551,1.551,0,0,1-1.656-1.3l-.575-2.041h-4.885l-.576,2.053a1.553,1.553,0,0,1-1.668,1.284h-.276A1.186,1.186,0,0,1,1203.368,668.166Zm7.992-4.512-1.715-6.972-1.789,6.972Z" transform="translate(-1058.999 -553)"/>
    <path d="M1245.523,668.347V654.413a1.349,1.349,0,0,1,1.5-1.5h.313a1.349,1.349,0,0,1,1.5,1.5v12.253h4.093a1.349,1.349,0,0,1,1.5,1.5v.181a1.35,1.35,0,0,1-1.5,1.5h-5.906A1.35,1.35,0,0,1,1245.523,668.347Z" transform="translate(-1058.999 -553)"/>
    <path d="M1267.136,668.166l4.116-13.98a1.581,1.581,0,0,1,1.68-1.273h.96a1.57,1.57,0,0,1,1.68,1.273l4.044,13.98c.288,1.057-.2,1.681-1.248,1.681h-.324a1.55,1.55,0,0,1-1.656-1.3l-.575-2.041h-4.885l-.576,2.053a1.554,1.554,0,0,1-1.668,1.284h-.277C1267.339,669.847,1266.848,669.21,1267.136,668.166Zm7.992-4.512-1.716-6.972-1.788,6.972Z" transform="translate(-1058.999 -553)"/>
    <path d="M1292.911,668.347V654.413a1.349,1.349,0,0,1,1.5-1.5h3.66c3.337,0,5.6,1.5,5.6,4.62v.24a3.555,3.555,0,0,1-2.124,3.565,3.654,3.654,0,0,1,2.28,3.66v.2c0,3.132-2.256,4.645-5.593,4.645h-3.828A1.349,1.349,0,0,1,1292.911,668.347Zm5.341-8.27c1.152,0,2.124-.443,2.124-1.811v-.384c0-1.477-1.1-1.789-2.424-1.789h-1.74v3.984Zm-.132,6.625c1.272,0,2.424-.348,2.424-1.872v-.372c0-1.416-1.068-1.812-2.3-1.812h-2.027V666.7Z" transform="translate(-1058.999 -553)"/>
    <circle cx="3.5" cy="3.5" r="3.5" transform="translate(201.501)"/>
    <path d="M1261.738,625.177v-53.3a1.256,1.256,0,0,1,1.42-1.42h1.42a1.256,1.256,0,0,1,1.42,1.42v53.3a1.256,1.256,0,0,1-1.42,1.42h-1.42A1.255,1.255,0,0,1,1261.738,625.177Z" transform="translate(-1058.999 -553)"/>    
</g>
</svg>
